<svg width="364" height="364" viewBox="0 0 364 364" fill="none" xmlns="http://www.w3.org/2000/svg">
<rect width="364" height="364" rx="100" fill="#FF4301"/>
<path fill-rule="evenodd" clip-rule="evenodd" d="M229.005 37.4517C228.308 37.8964 228.75 45.7116 229.903 53.3365C230.207 55.349 230.745 59.9087 231.099 63.4693C231.453 67.0298 232.096 72.5837 232.528 75.811C232.96 79.0383 233.314 82.2763 233.314 83.0058C233.314 85.3876 231.764 85.1438 228.386 82.2312C226.622 80.7113 221.014 76.1893 215.923 72.1823C207.908 65.8753 203.011 61.977 186.19 48.5145C184.493 47.1567 181.663 44.8768 179.902 43.4486C177.151 41.2183 176.459 40.9053 174.993 41.2284C174.055 41.435 173.287 41.8589 173.287 42.1702C173.287 42.817 177.574 48.5263 180.71 52.0575C181.873 53.3664 182.829 54.6329 182.835 54.8722C182.841 55.1109 183.746 56.3201 184.846 57.5585C185.947 58.797 187.815 61.0768 188.999 62.6249C190.183 64.1729 196.342 71.8992 202.687 79.7943C209.032 87.6894 214.227 94.4981 214.231 94.9248C214.242 95.8446 210.89 95.4601 207.937 94.2031C206.93 93.7747 200.047 91.4616 192.642 89.063C185.236 86.6643 176.653 83.8294 173.568 82.7632C170.482 81.697 166.443 80.3606 164.592 79.7937C162.74 79.2269 154.33 76.4617 145.902 73.6493C137.473 70.8369 130.259 68.5357 129.871 68.5357C129.047 68.5357 126.725 70.878 126.725 71.7083C126.725 72.0202 128.681 73.3712 131.072 74.711C133.463 76.0508 136.361 77.7424 137.512 78.4708C138.662 79.1987 139.74 79.7943 139.907 79.7943C140.074 79.7943 141.255 80.4557 142.531 81.2641C143.808 82.073 145.885 83.2969 147.149 83.9848C152.821 87.0747 161.399 91.9024 163.189 93.0142C167.455 95.6616 171.132 97.8081 171.404 97.8081C171.562 97.8081 174.006 99.1648 176.837 100.823C185.52 105.91 189.705 108.315 193.208 110.232C200.262 114.091 201.637 115.222 200.291 116.056C199.58 116.497 185.072 117.935 174.409 118.621C169.318 118.948 161.366 119.594 156.738 120.055C152.11 120.516 146.682 120.991 144.676 121.11C133.948 121.745 122.719 122.679 120.03 123.159C118.353 123.458 115.576 123.7 113.859 123.697C112.141 123.693 107.642 123.988 103.861 124.353L96.985 125.015L96.3898 127.233C95.5349 130.419 95.9506 131.021 99.0069 131.021C100.443 131.021 106.825 131.657 113.189 132.433C136.018 135.219 150.575 136.865 160.384 137.772C168.029 138.479 174.838 139.271 182.615 140.36C185.741 140.796 189.401 141.17 190.75 141.19C194.416 141.243 204.312 143.041 204.495 143.687C204.583 143.997 203.373 145.263 201.807 146.502C200.241 147.74 197.639 149.893 196.024 151.287C194.41 152.68 188.602 157.493 183.117 161.982C170.858 172.015 158.703 182.077 155.335 184.977C153.098 186.904 150.221 189.278 141.58 196.321C134.302 202.253 131.269 204.788 130.366 205.695C129.812 206.25 127.896 207.852 126.106 209.253C117.438 216.044 114.43 218.615 114.407 219.252C114.394 219.634 115.126 220.774 116.035 221.785L117.686 223.623L120.943 221.95C122.735 221.029 125.841 219.36 127.847 218.242C129.852 217.123 133.386 215.188 135.7 213.942C138.015 212.696 143.19 209.903 147.201 207.737C151.212 205.571 156.513 202.714 158.982 201.388C161.45 200.062 165.196 198 167.307 196.805C169.417 195.61 171.266 194.632 171.416 194.632C171.566 194.632 173.374 193.657 175.434 192.465C177.492 191.273 181.45 189.085 184.227 187.602C190.898 184.04 195.071 181.765 197.129 180.57C198.055 180.032 201.337 178.256 204.422 176.624C214.263 171.416 218.365 169.175 221.722 167.172C224.678 165.409 225.082 165.303 225.866 166.089C226.649 166.875 226.641 167.39 225.78 171.367C225.256 173.791 224.569 176.76 224.255 177.965C223.941 179.17 223.483 181.323 223.239 182.75C222.738 185.663 219.22 202.946 217.897 208.987C217.422 211.154 216.273 216.854 215.342 221.653C213.635 230.454 212.548 235.582 211.405 240.23C211.062 241.623 210.574 244.078 210.32 245.687C210.065 247.294 209.717 248.837 209.546 249.116C209.374 249.394 209 250.992 208.713 252.666C208.426 254.34 207.806 257.737 207.336 260.214C206.865 262.691 206.319 265.681 206.121 266.859L205.763 269L208.694 268.829L211.627 268.658L215.608 259.088C217.797 253.825 220.026 248.593 220.561 247.463C221.095 246.332 221.533 245.269 221.533 245.1C221.533 244.931 222.941 241.55 224.663 237.586C226.385 233.622 228.433 228.859 229.215 227.001C229.996 225.143 231.088 222.61 231.642 221.372C232.196 220.133 233.205 217.727 233.885 216.024C234.564 214.321 235.75 211.534 236.52 209.831C237.289 208.129 239.431 203.062 241.278 198.573C243.126 194.083 244.833 190.157 245.072 189.847C245.311 189.538 246.054 187.794 246.723 185.972C247.392 184.15 248.472 181.49 249.121 180.061C249.771 178.632 250.77 176.367 251.342 175.029C253.002 171.147 254.315 172.235 256.319 179.152C256.869 181.051 261.558 195.127 262.508 197.728C263.618 200.772 267.077 211.15 268.417 215.461C269.139 217.783 270.586 222.216 271.633 225.312C272.679 228.408 273.937 232.208 274.426 233.756C275.644 237.606 276.556 240.183 277.444 242.285C277.856 243.261 278.193 244.433 278.193 244.89C278.193 245.347 278.579 246.043 279.051 246.435C279.764 247.029 280.152 246.921 281.34 245.802C282.561 244.65 282.735 244.081 282.527 241.919C282.207 238.602 281.079 230.557 280.434 227.001C280.153 225.453 279.644 221.4 279.302 217.994C278.96 214.588 278.331 209.522 277.905 206.735C276.556 197.912 275.884 193.08 275.621 190.297C275.479 188.811 274.864 184.1 274.254 179.828C273.055 171.437 272.848 167.049 273.651 167.049C274.108 167.049 285.305 179.449 291.657 186.991C295.987 192.131 305.793 203.195 309.307 206.905C312.354 210.121 312.734 210.361 313.382 209.471C314.787 207.545 314.789 207.55 304.629 188.903C302.044 184.16 298.016 176.731 295.679 172.396C293.342 168.062 290.21 162.362 288.719 159.731C285.893 154.743 285.082 152.63 285.741 151.969C285.955 151.754 288.068 152.303 290.437 153.189C292.805 154.074 296.762 155.507 299.231 156.374C301.699 157.241 305.486 158.627 307.646 159.455C310.954 160.724 313.847 161.824 319.146 163.829C323.884 165.62 326.371 166.366 326.657 166.079C326.846 165.89 327 165.065 327 164.245C327 162.475 325.614 161.087 319.329 156.56C301.157 143.47 290.504 135.257 290.658 134.455C290.823 133.596 294.622 132.286 300.633 131.014C303.033 130.506 308.717 129.211 312.975 128.202C320.197 126.491 323.808 125.442 324.35 124.898C324.777 124.47 324.805 123.787 324.437 122.738C323.857 121.083 324.86 121.36 311.573 119.184C309.413 118.83 306.257 118.32 304.56 118.049C295.347 116.582 290.327 115.648 287.59 114.891C287.05 114.742 286.608 114.264 286.608 113.828C286.608 113.392 289.214 109.546 292.397 105.281C304.744 88.7432 307.365 85.0791 307.365 84.3602C307.365 84.112 306.923 83.5096 306.383 83.021C305.262 82.0066 306.8 81.3829 288.395 90.3143C278.371 95.1781 273.886 97.2452 273.356 97.2452C272.764 97.2452 273.964 81.2438 275.108 73.8835C275.253 72.9547 275.503 69.9148 275.666 67.1283C275.828 64.3418 276.176 60.7149 276.439 59.0689C276.811 56.7332 276.739 55.8984 276.112 55.2691C274.261 53.4108 274.12 53.6022 261.158 75.5723C257.687 81.4549 254.521 86.268 254.122 86.268C253.351 86.268 251.832 83.6701 249.661 78.6408C248.932 76.9532 246.879 72.2792 245.097 68.2542C243.317 64.2292 240.91 58.7829 239.748 56.1512C238.587 53.5195 236.889 49.7197 235.975 47.7072C235.062 45.6947 233.816 42.7821 233.207 41.2346C231.59 37.1292 230.727 36.3523 229.005 37.4517Z" fill="white"/>
</svg>
